# xmcd
#
# Track frame offsets:
#	150
#	11897
#	27247
#	43619
#	61660
#	75818
#	93000
#	103241
#	121819
#	143727
#	155587
#	168283
#	180188
#	196238
#	216188
#	230239
#	248871
#	267127
#	286872
#	303551
#
# Disc length: 4389 seconds
#
# Revision: 3
# Processed by: cddbd v1.5.1PL0 Copyright (c) Steve Scherf et al.
# Submitted via: MusicWizard 7.0.2
#
DISCID=02112314
DTITLE=Steve Earle And The Dukes - Guitar Town (1986) and Exit 0 (1987)
DYEAR=2002
DGENRE=Countryrock
TTITLE0=Guitar Town
TTITLE1=Goodbye's All We've Got Left
TTITLE2=Hillbilly Highway
TTITLE3=Good Ol' Boy (Gettin' Tough)
TTITLE4=My Old Friend The Blues
TTITLE5=Someday
TTITLE6=Think It Over
TTITLE7=Fearless Heart
TTITLE8=Little Rock 'N' Roller
TTITLE9=Down The Road
TTITLE10=Nowhere Road
TTITLE11=Sweet Little '66
TTITLE12=No 29
TTITLE13=Angry Young Man
TTITLE14=San Antonio Girl
TTITLE15=The Rain Came Down
TTITLE16=I Ain't Ever Satisfied
TTITLE17=The Week Of Living Dangerously
TTITLE18=I Love You Too Much
TTITLE19=It's All Up To You
EXTD=MCA LP "Guitar Town" (p)1986 MCA\nMCA LP "Exit 0" (p)1987 MCA\n\n
EXTT0=
EXTT1=
EXTT2=
EXTT3=
EXTT4=
EXTT5=
EXTT6=
EXTT7=
EXTT8=
EXTT9=
EXTT10=
EXTT11=
EXTT12=
EXTT13=
EXTT14=
EXTT15=
EXTT16=
EXTT17=
EXTT18=
EXTT19=
PLAYORDER=
